<svg width="38" height="38" viewBox="0 0 38 38" fill="none" xmlns="http://www.w3.org/2000/svg">
<path d="M37.8832 11.1673C37.7424 4.50045 33.5008 0.256452 26.8324 0.116852C25.2312 -0.0375477 12.7696 -0.0403477 11.1672 0.116852C4.5004 0.257652 0.256405 4.49925 0.116805 11.1677C-0.0375953 12.7665 -0.0407953 25.2321 0.116805 26.8329C0.241205 33.4781 4.5212 37.7593 11.1672 37.8833C12.7684 38.0393 25.23 38.0393 26.8324 37.8833C28.8544 37.7909 30.2356 37.4697 31.444 37.0001C35.6788 35.3085 37.748 31.5457 37.8832 26.8325C38.0376 25.2313 38.0404 12.7697 37.8832 11.1673ZM26.6764 34.4637C25.1008 34.6141 12.9 34.6165 11.3232 34.4637C9.4712 34.3793 8.4652 34.0697 7.7956 33.8097C2.016 31.1289 3.808 25.7077 3.5356 18.2665C3.5416 16.5381 3.532 13.0521 3.536 11.3237C3.7668 6.17085 6.1936 3.78525 11.3232 3.53645C12.9008 3.38605 25.0984 3.38365 26.6764 3.53645C31.8308 3.76725 34.214 6.19405 34.4636 11.3233C34.5656 12.5549 34.6396 19.2781 34.4636 22.6805C34.6536 29.0709 34.3624 34.0889 26.6764 34.4637Z" fill="#292929"/>
</svg>
