<svg width="32" height="32" viewBox="0 0 32 32" fill="none" xmlns="http://www.w3.org/2000/svg">
<g clip-path="url(#clip0_883_146)">
<path d="M11.0716 31.3846C13.9023 31.3846 16.1998 29.0871 16.1998 26.2564V21.1282H11.0716C8.2408 21.1282 5.94336 23.4256 5.94336 26.2564C5.94336 29.0871 8.2408 31.3846 11.0716 31.3846Z" fill="white"/>
<path d="M5.94336 16C5.94336 13.1693 8.2408 10.8718 11.0716 10.8718H16.1998V21.1282H11.0716C8.2408 21.1282 5.94336 18.8308 5.94336 16Z" fill="white"/>
<path d="M5.94336 5.74368C5.94336 2.91291 8.2408 0.615479 11.0716 0.615479H16.1998V10.8719H11.0716C8.2408 10.8719 5.94336 8.57445 5.94336 5.74368Z" fill="white"/>
<path d="M16.1998 0.615479H21.328C24.1588 0.615479 26.4562 2.91291 26.4562 5.74368C26.4562 8.57445 24.1588 10.8719 21.328 10.8719H16.1998V0.615479Z" fill="white"/>
<path d="M26.4562 16C26.4562 18.8308 24.1588 21.1282 21.328 21.1282C18.4973 21.1282 16.1998 18.8308 16.1998 16C16.1998 13.1693 18.4973 10.8718 21.328 10.8718C24.1588 10.8718 26.4562 13.1693 26.4562 16Z" fill="white"/>
</g>
<defs>
<clipPath id="clip0_883_146">
<rect width="30.7692" height="30.7692" fill="white" transform="translate(0.815308 0.615479)"/>
</clipPath>
</defs>
</svg>
