<svg width="32" height="32" viewBox="0 0 32 32" fill="none" xmlns="http://www.w3.org/2000/svg">
<path d="M23.8005 6.44604C21.4621 6.51774 21.4627 9.88205 23.8005 9.95312C26.139 9.88143 26.1384 6.51712 23.8005 6.44604ZM15.9999 8.4762C11.8553 8.4762 8.49561 11.8448 8.49561 16.0002C8.89099 25.9808 23.1101 25.978 23.5039 16.0002C23.5042 11.8448 20.1442 8.4762 15.9999 8.4762ZM15.9999 20.8842C13.3098 20.8842 11.1288 18.6974 11.1288 16.0002C11.3855 9.52174 20.6156 9.52328 20.8713 16.0002C20.871 18.6977 18.6901 20.8842 15.9999 20.8842Z" fill="white"/>
<path d="M30.5255 9.97496C30.4172 4.84665 27.1544 1.58204 22.0249 1.47465C20.7932 1.35588 11.2073 1.35373 9.97471 1.47465C4.8464 1.58296 1.58179 4.84573 1.4744 9.97527C1.35563 11.2051 1.35317 20.794 1.4744 22.0254C1.57009 27.1371 4.8624 30.4303 9.97471 30.5257C11.2064 30.6457 20.7922 30.6457 22.0249 30.5257C23.5802 30.4547 24.6427 30.2076 25.5722 29.8463C28.8298 28.5451 30.4215 25.6507 30.5255 22.0251C30.6442 20.7934 30.6464 11.2076 30.5255 9.97496ZM21.9049 27.8953C20.6929 28.011 11.3076 28.0128 10.0947 27.8953C8.67009 27.8303 7.89625 27.5922 7.38117 27.3922C2.93532 25.33 4.31379 21.1599 4.10425 15.4359C4.10886 14.1063 4.10148 11.4248 4.10456 10.0953C4.28209 6.13158 6.14886 4.2965 10.0947 4.10511C11.3082 3.98942 20.691 3.98758 21.9049 4.10511C25.8698 4.28265 27.703 6.14942 27.895 10.095C27.9735 11.0423 28.0304 16.214 27.895 18.8313C28.0412 23.747 27.8172 27.607 21.9049 27.8953Z" fill="white"/>
</svg>
