<svg width="31" height="32" viewBox="0 0 31 32" fill="none" xmlns="http://www.w3.org/2000/svg">
<g clip-path="url(#clip0_883_153)">
<path d="M27.8551 1.38864C23.3594 1.37602 6.77759 1.39725 2.94498 1.38864C1.75236 1.38864 0.784668 2.32679 0.784668 3.48218V28.5225C0.784668 29.6782 1.75236 30.6154 2.94498 30.6154H27.8551C29.0484 30.6154 30.0154 29.6782 30.0154 28.5222V3.48218C30.0154 2.32679 29.0484 1.38864 27.8551 1.38864Z" fill="white"/>
<path d="M16.4624 25.8477C16.4624 25.8477 16.4624 18.5007 16.4624 18.5003C16.4197 17.1502 17.2267 15.8902 18.8507 15.8336C20.4332 15.8336 21.0664 17.04 21.0664 18.809V25.8474H25.44V18.3031C25.44 14.2616 23.2824 12.381 20.4046 12.381C18.0452 12.381 17.0089 13.6994 16.4332 14.5976L16.4624 12.6899H12.0889C12.1458 13.9243 12.0886 25.8477 12.0886 25.8477H16.4624ZM9.66765 20.1419V12.6896H5.2935V25.8474H9.66796C9.66704 24.4659 9.6695 21.504 9.66765 20.1419ZM7.4815 10.8936C9.00642 10.8936 9.95596 9.88311 9.95596 8.62065C9.94335 5.57542 5.03165 5.60927 5.03565 8.62034C5.03227 9.89265 6.00796 10.9093 7.4815 10.8936Z" fill="black"/>
</g>
<defs>
<clipPath id="clip0_883_153">
<rect width="30.7692" height="30.7692" fill="white" transform="translate(0.0153809 0.615479)"/>
</clipPath>
</defs>
</svg>
