<svg width="32" height="32" viewBox="0 0 32 32" fill="none" xmlns="http://www.w3.org/2000/svg">
<path d="M16.9615 16C16.9615 20.5066 13.5108 24.1731 9.26921 24.1731C5.02763 24.1731 1.5769 20.5066 1.5769 16C1.5769 11.4934 5.02763 7.8269 9.26921 7.8269C13.5108 7.8269 16.9615 11.4934 16.9615 16ZM22.7307 8.30767C22.0477 8.30767 20.7597 8.63949 19.8072 10.8619C19.2122 12.2501 18.8846 14.0749 18.8846 16C18.8846 17.9251 19.2122 19.7499 19.8072 21.1381C20.7597 23.3605 22.0477 23.6923 22.7307 23.6923C23.4138 23.6923 24.7018 23.3605 25.6543 21.1381C26.2493 19.7499 26.5769 17.9251 26.5769 16C26.5769 14.0749 26.2493 12.2501 25.6543 10.8619C24.7018 8.6395 23.4138 8.30767 22.7307 8.30767ZM29.4615 8.30767C29.2065 8.30769 28.9619 8.40899 28.7816 8.58932C28.6013 8.76964 28.5 9.0142 28.5 9.26921V22.7308C28.5 22.9858 28.6013 23.2303 28.7816 23.4107C28.9619 23.591 29.2065 23.6923 29.4615 23.6923C29.7165 23.6923 29.9611 23.591 30.1414 23.4107C30.3218 23.2303 30.4231 22.9858 30.4231 22.7308V9.26921C30.423 9.0142 30.3217 8.76964 30.1414 8.58932C29.9611 8.40899 29.7165 8.30769 29.4615 8.30767Z" fill="white"/>
</svg>
