<svg width="32" height="32" viewBox="0 0 32 32" fill="none" xmlns="http://www.w3.org/2000/svg">
<path d="M15.7927 3.17969C13.257 3.17969 10.7783 3.9316 8.66999 5.34033C6.56167 6.74907 4.91843 8.75136 3.94808 11.094C2.97772 13.4366 2.72383 16.0144 3.21852 18.5014C3.7132 20.9883 4.93423 23.2727 6.72722 25.0657C8.5202 26.8587 10.8046 28.0797 13.2915 28.5744C15.7785 29.0691 18.3562 28.8152 20.6989 27.8448C23.0415 26.8745 25.0438 25.2312 26.4526 23.1229C27.8613 21.0146 28.6132 18.5359 28.6132 16.0002C28.6133 14.3165 28.2818 12.6494 27.6376 11.0938C26.9933 9.53832 26.049 8.12494 24.8585 6.93442C23.6679 5.74389 22.2546 4.79955 20.6991 4.15531C19.1435 3.51106 17.4763 3.17955 15.7927 3.17969ZM19.869 22.6059C19.821 22.7256 19.748 22.8336 19.6548 22.9227C19.5617 23.0119 19.4506 23.08 19.3289 23.1227C19.2073 23.1654 19.0779 23.1816 18.9495 23.1702C18.8211 23.1588 18.6966 23.12 18.5844 23.0566L15.104 20.3522L12.8703 22.413C12.8184 22.4513 12.7578 22.476 12.694 22.4847C12.6301 22.4934 12.5651 22.4859 12.5049 22.4629L12.9331 18.6316L12.9468 18.6425L12.9556 18.5668C12.9556 18.5668 19.2184 12.8649 19.4735 12.6219C19.7318 12.3796 19.6466 12.3271 19.6466 12.3271C19.6613 12.0315 19.1831 12.3271 19.1831 12.3271L10.885 17.6656L7.42924 16.4887C7.42924 16.4887 6.89847 16.2983 6.84847 15.8797C6.7959 15.4643 7.44653 15.2387 7.44653 15.2387L21.1863 9.78032C21.1863 9.78032 22.3158 9.27709 22.3158 10.1105L19.869 22.6059Z" fill="white"/>
</svg>
