<svg width="31" height="32" viewBox="0 0 31 32" fill="none" xmlns="http://www.w3.org/2000/svg">
<path d="M29.8834 7.11465C28.832 7.58173 27.7024 7.89588 26.5169 8.03773C27.7277 7.3125 28.656 6.1645 29.0932 4.79558C27.9615 5.46696 26.707 5.95465 25.3707 6.21835C24.3018 5.07896 22.779 4.36696 21.0935 4.36696C17.368 4.31712 14.5037 7.95681 15.3852 11.5623C10.5147 11.3183 6.19689 8.98481 3.3052 5.43804C1.72705 8.01158 2.62305 11.6919 5.11936 13.263C4.15905 13.2322 3.25474 12.9685 2.46489 12.53C2.42828 15.3931 4.45936 17.8103 7.16612 18.3497C6.33443 18.5817 5.37628 18.618 4.51936 18.4507C5.26551 20.7787 7.42982 22.474 9.99412 22.5211C7.67566 24.3737 4.42982 25.3396 1.31689 24.9482C13.8344 32.6519 27.6723 22.559 26.9578 10.1479C28.1034 9.32081 29.0978 8.28911 29.8834 7.11465Z" fill="white"/>
</svg>
